<svg xmlns="http://www.w3.org/2000/svg" xmlns:xlink="http://www.w3.org/1999/xlink" width="24" height="24" viewBox="0 0 24 24"><defs><style>.a{fill:#333;}.b{clip-path:url(#a);}.c{fill:#343434;}</style><clipPath id="a"><path class="a" d="M18,22H2a2,2,0,0,1-2-2V2A2,2,0,0,1,2,0H18a2,2,0,0,1,2,2V20A2,2,0,0,1,18,22ZM6.125,13.875v2.5l2.5,0v1.25h2.5V11.156a3.749,3.749,0,1,0-2.5,0v2.719Zm3.749-5a1.25,1.25,0,1,1,1.25-1.25A1.252,1.252,0,0,1,9.875,8.876Z" transform="translate(2 1)"/></clipPath></defs><path class="a" d="M18,22H2a2,2,0,0,1-2-2V2A2,2,0,0,1,2,0H18a2,2,0,0,1,2,2V20A2,2,0,0,1,18,22ZM6.125,13.875v2.5l2.5,0v1.25h2.5V11.156a3.749,3.749,0,1,0-2.5,0v2.719Zm3.749-5a1.25,1.25,0,1,1,1.25-1.25A1.252,1.252,0,0,1,9.875,8.876Z" transform="translate(2 1)"/><g class="b"><rect class="c" width="24" height="24" rx="5" transform="translate(24) rotate(90)"/></g></svg>